<svg data-v-0dd9719b="" version="1.0" xmlns="http://www.w3.org/2000/svg" xmlns:xlink="http://www.w3.org/1999/xlink" width="100%" height="100%" viewBox="0 0 340.000000 250.000000" preserveAspectRatio="xMidYMid meet" color-interpolation-filters="sRGB" style="margin: auto;"> <rect data-v-0dd9719b="" x="0" y="0" width="100%" height="100%" fill="#fff" fill-opacity="1" class="background"></rect> <rect data-v-0dd9719b="" x="0" y="0" width="100%" height="100%" fill="url(#watermark)" fill-opacity="1" class="watermarklayer"></rect> <g data-v-0dd9719b="" fill="#333" class="icon-text-wrapper icon-svg-group iconsvg" transform="translate(53.269996643066406,91.58758926391602)"><g class="iconsvg-imagesvg" transform="translate(0,0)"><g><rect fill="#333" fill-opacity="0" stroke-width="2" x="0" y="0" width="60" height="66.82481873767918" class="image-rect"></rect> <svg x="0" y="0" width="60" height="66.82481873767918" filtersec="colorsb1061815827" class="image-svg-svg primary" style="overflow: visible;"><svg xmlns="http://www.w3.org/2000/svg" viewBox="0 -0.0028373277746140957 89.81000518798828 100.02556610107422"><title>资源 134</title><path d="M64.35 47.87c-.58 0-1.17 0-1.74.05.34.73.66 1.46 1 2.2a64.86 64.86 0 0 1 5.14 25.46 65.77 65.77 0 0 1-1.34 13.26L84.44 79a11.89 11.89 0 0 0 5.37-9.28v-10a33.48 33.48 0 0 0-25.46-11.85zM21.49 69a9.3 9.3 0 0 1 9.3-9.31 9.07 9.07 0 0 1 1.66.15 39.44 39.44 0 0 1 4.73-5.73 38.15 38.15 0 0 1 15.09-9.32 58 58 0 0 0-41.94-26.64L5.38 21A11.9 11.9 0 0 0 0 30.28v39.44A11.9 11.9 0 0 0 5.38 79l22 12.68a38.86 38.86 0 0 1-1.19-14.63 9.3 9.3 0 0 1-4.7-8.05z" fill="#275cde"></path><path d="M84.44 21L50.28 1.28a11.86 11.86 0 0 0-10.73 0L20.29 12.4a64 64 0 0 1 8.49 2.92 65.23 65.23 0 0 1 20.79 14 65.61 65.61 0 0 1 10.52 13.76 37.62 37.62 0 0 1 4.26-.24 38.33 38.33 0 0 1 25.46 9.64v-22.2A11.92 11.92 0 0 0 84.44 21z" fill="#0a2183"></path><path d="M37 62.08a9.31 9.31 0 0 1-5.95 16.2c-.08 1-.13 2-.13 3a33.2 33.2 0 0 0 3.26 14.39l5.33 3.07a11.84 11.84 0 0 0 10.72 0l7.87-4.54a57.76 57.76 0 0 0-3.27-44.94A33.46 33.46 0 0 0 37 62.08z" fill="#01cfff"></path></svg></svg> <!----></g></g> <g transform="translate(67,10.146162033081055)"><g data-gra="path-name" fill-rule="" class="tp-name iconsvg-namesvg" transform="translate(0,0)"><g transform="scale(1)"><g><path d="M35.91-0.67L36.81-23.76 30.29-23.71 31.32-6.52 25.29-6.48 26.46-29.25 19.13-29.25 19.98-6.48 13.95-6.43 14.89-23.71 8.14-23.76 9.49-0.45 35.91-0.67ZM68.31-21.29L66.56-21.29 66.73-24.25 68.27-24.21 68.31-21.29ZM77.13-15.97L76.86-11.88 73.62-11.52 74.03-15.88 77.13-15.97ZM68.44-6.66L76.55-6.39 76.5-5 58.55-4.54 58.14-9.09 61.88-5.49 65.88-10.57 66.19-15.57 68.36-15.66 68.44-6.66ZM60.88-15.39L61.11-12.64 58.05-10.62 57.64-15.25 60.88-15.39ZM52.29-24.61L60.16-24.39 60.39-21.24 53.28-21.15 52.97-0.14 52.97-0.14 52.97 0.18 82.03 0.27 82.03 0 82.03 0 81.36-21.42 74.52-21.33 74.79-24.03 82.57-23.85 82.71-29.92 52.34-29.11 52.29-24.61ZM122.09-26.19L122.09-25.38 105.39-24.7 105.39-25.88 122.09-26.19ZM105.44-21.29L121.91-21.11 121.86-20.56 105.44-20.11 105.44-21.29ZM101.07-16.16L96.48-8.32 99.45-6.17 103.23-10.3 110.75-10.13 110.84-8.78 102.51-8.46 102.6-5.35 111.15-5.13 111.28-3.38 98.37-3.06 98.55 0.04 128.2 0.77 128.52-3.82 116.64-3.51 116.78-4.95 125.64-4.68 125.91-9.22 117.22-8.96 117.36-9.95 126.9-9.67 127.22-14.26 117.81-13.99 117.9-15.03 110.3-15.39 110.43-13.77 106.25-13.63 106.83-14.26 103.91-16.25 104.08-16.25 104.08-16.16 126.05-16.34 126-16.43 126.05-16.43 126.09-30.42 100.71-30.11 101.07-16.16ZM165.69-21.73L165.69-20.52 156.56-20.52 156.38-21.78 165.69-21.73ZM174.47-26.19L174.6-30.64 144.41-30.15 144.31-27.22 150.97-27 143.32-22.77 147.56-18.27 151.06-21.55 151.06-17.05 171.22-17.05 171.22-25.15 154.94-25.2 156.65-26.77 174.47-26.19ZM154.75-5.67L154.71-2.83 151.06-2.75 150.88-5.76 154.75-5.67ZM169.88-5.67L169.88-2.83 166.77-2.79 166.59-5.76 169.88-5.67ZM147.47-4.46L147.33 0.94 158.85 0.9 158.53-3.65 161.01-1.93 162.45-4.72 162.18 0.94 173.97 0.9 173.34-9.31 164.88-9.36 165.87-11.21 174.01-10.8 174.06-16.38 159.53-15.79 159.66-11.47 161.78-11.38 158.35-7.33 158.22-9.31 150.03-9.36 150.97-11.16 158.31-10.8 158.35-15.97 144.13-15.39 144.27-11.43 146.52-11.34 140.4-4.81 145.71-1.08 147.47-4.46Z" transform="translate(-8.140000343322754, 30.639999389648438)"></path></g> <!----> <!----> <!----> <!----> <!----> <!----> <!----></g></g> <g data-gra="path-slogan" fill-rule="" class="tp-slogan iconsvg-slogansvg" fill="#333" transform="translate(36.53917694091797,37.579999923706055)"><!----> <!----> <g transform="scale(1, 1)"><g transform="scale(1)"><path d="M7.17-6.09L7.17-6.09L6.09-6.09Q6-7.73 3.94-7.83L3.94-7.83Q2.02-7.78 2.02-6.33L2.02-6.33Q2.02-5.39 3.05-5.25L3.05-5.25L5.48-4.69Q7.41-4.22 7.41-2.34L7.41-2.34Q7.36 0.05 4.03 0.14L4.03 0.14Q2.20 0.14 1.45-0.61L1.45-0.61Q0.52-1.31 0.56-2.77L0.56-2.77L1.69-2.77Q1.73-0.80 4.03-0.75L4.03-0.75Q6.28-0.80 6.33-2.20L6.33-2.20Q6.52-3.38 4.45-3.75L4.45-3.75L2.67-4.13Q0.84-4.64 0.84-6.19L0.84-6.19Q0.98-8.72 3.84-8.81L3.84-8.81Q7.08-8.81 7.17-6.09ZM10.03-5.06L14.53-5.06L14.53-8.58L15.70-8.58L15.70 0L14.53 0L14.53-3.98L10.03-3.98L10.03 0L8.86 0L8.86-8.58L10.03-8.58L10.03-5.06ZM23.16 0L22.31-2.48L18.84-2.48L17.95 0L16.78 0L20.02-8.58L21.33-8.58L24.42 0L23.16 0ZM20.58-7.31L19.22-3.52L21.89-3.52L20.63-7.31L20.58-7.31ZM26.86-8.58L31.17-1.64L31.17-8.58L32.30-8.58L32.30 0L30.98 0L26.63-6.94L26.58-6.94L26.58 0L25.45 0L25.45-8.58L26.86-8.58ZM40.83-8.58L37.92-4.41L40.97 0L39.52 0L37.17-3.52L34.83 0L33.42 0L36.52-4.41L33.61-8.58L35.06-8.58L37.22-5.30L39.42-8.58L40.83-8.58ZM42.23-8.58L43.41-8.58L43.41 0L42.23 0L42.23-8.58ZM55.45-8.58L52.55-4.41L55.59 0L54.14 0L51.80-3.52L49.45 0L48.05 0L51.14-4.41L48.23-8.58L49.69-8.58L51.84-5.30L54.05-8.58L55.45-8.58ZM56.86-8.58L58.03-8.58L58.03 0L56.86 0L56.86-8.58ZM61.41-8.58L65.72-1.64L65.72-8.58L66.84-8.58L66.84 0L65.53 0L61.17-6.94L61.13-6.94L61.13 0L60 0L60-8.58L61.41-8.58ZM75.05-3.61L72.42-3.61L72.42-4.59L76.17-4.59L76.17 0L75.42 0L75.14-1.08Q74.16 0.09 72.33 0.14L72.33 0.14Q70.59 0.14 69.66-0.75L69.66-0.75Q68.25-2.06 68.30-4.36L68.30-4.36Q68.63-8.63 72.38-8.81L72.38-8.81Q75.56-8.63 76.03-6L76.03-6L74.91-6Q74.44-7.78 72.33-7.83L72.33-7.83Q69.66-7.64 69.52-4.31L69.52-4.31Q69.52-0.75 72.38-0.75L72.38-0.75Q73.41-0.75 74.16-1.31L74.16-1.31Q75.09-2.06 75.05-3.61L75.05-3.61ZM77.95-8.58L79.13-8.58L79.13-1.03L83.48-1.03L83.48 0L77.95 0L77.95-8.58ZM85.92-1.03L91.08-1.03L91.08 0L84.75 0L84.75-8.58L90.98-8.58L90.98-7.59L85.92-7.59L85.92-4.92L90.61-4.92L90.61-3.89L85.92-3.89L85.92-1.03ZM92.77-8.58L93.94-8.58L93.94 0L92.77 0L92.77-8.58Z" transform="translate(-0.5602678571428572, 8.8125)"></path></g></g></g></g></g><defs v-gra="od"></defs></svg>